<?xml version="1.0" encoding="UTF-8" standalone="no"?>
<svg
   xmlns:dc="http://purl.org/dc/elements/1.1/"
   xmlns:cc="http://creativecommons.org/ns#"
   xmlns:rdf="http://www.w3.org/1999/02/22-rdf-syntax-ns#"
   xmlns:svg="http://www.w3.org/2000/svg"
   xmlns="http://www.w3.org/2000/svg"
   viewBox="0 0 299 253"
   height="253"
   width="299"
   id="svg869"
   version="1.1">
  <metadata
     id="metadata875">
    <rdf:RDF>
      <cc:Work
         rdf:about="">
        <dc:format>image/svg+xml</dc:format>
        <dc:type
           rdf:resource="http://purl.org/dc/dcmitype/StillImage" />
        <dc:title></dc:title>
      </cc:Work>
    </rdf:RDF>
  </metadata>
  <defs
     id="defs873" />
  <path
     id="path879"
     d="m 243.01506,219.86838 c -2.578,-1.95981 -3.25454,-6.07533 -1.3172,-8.01267 2.50595,-2.50595 7.5009,-1.82522 7.5009,1.02225 0,0.79861 0.45,1.17391 1,0.83399 1.60325,-0.99086 1.19786,-3.07427 -2.15015,-11.05021 -3.12609,-7.44728 -3.16457,-7.4891 -5.03895,-5.47719 -2.41531,2.59253 -5.30546,2.58711 -7.1269,-0.0134 -1.42317,-2.03185 -1.4321,-2.03076 -2.04305,0.25 -1.30838,4.88428 -0.75297,7.63576 1.60905,7.97122 1.76232,0.25029 2.25,0.96979 2.25,3.31955 v 3 h -8.5 -8.5 l -0.31336,-3.25 c -0.26205,-2.71784 0.0245,-3.25 1.75,-3.25 1.80937,0 2.06336,-0.61549 2.06336,-5 0,-4.38451 -0.25399,-5 -2.06336,-5 -1.7255,0 -2.01205,-0.53216 -1.75,-3.25 0.31101,-3.22567 0.35827,-3.25262 6.31336,-3.59958 7.7276,-0.45024 10.84605,-0.4783 29.19312,-0.26271 13.74282,0.16148 15.24845,0.35283 15.77268,2.00453 0.78085,2.46025 -0.23208,4.81338 -2.30537,5.35556 -1.05601,0.27615 -3.12778,4.01132 -5.46263,9.84854 -3.93521,9.83818 -5.85746,12.84837 -9.42346,14.75684 -2.83815,1.51893 -9.34823,1.40714 -11.45804,-0.19675 z m 10.80056,-2.5645 c 3.04122,-1.85448 3.46669,-2.66474 10.94415,-20.84193 0.73532,-1.7875 2.0349,-3.25 2.88796,-3.25 0.85307,0 1.55103,-0.675 1.55103,-1.5 0,-1.13333 -1.22222,-1.5 -5,-1.5 -5.40591,0 -5.56725,0.11883 -3.86402,2.84613 1.42317,2.27886 -1.55484,12.15387 -3.66525,12.15387 -0.78513,0 -2.12179,-2.38961 -3.13552,-5.60555 -1.70965,-5.42363 -1.70633,-5.64991 0.10239,-6.97248 1.73666,-1.26988 1.74719,-1.41383 0.1483,-2.02738 -0.9466,-0.36324 -4.2414,-0.40032 -7.32179,-0.0824 -3.1769,0.32789 -6.4453,0.12602 -7.55235,-0.46645 -1.5253,-0.81632 -2.57198,-0.58587 -4.79121,1.05488 -3.35021,2.47692 -4.92055,2.6682 -4.92055,0.59938 0,-1.04762 -1.05556,-1.5 -3.5,-1.5 -2.44444,0 -3.5,0.45238 -3.5,1.5 0,0.83333 0.88889,1.5 2,1.5 1.80952,0 2,0.66667 2,7 0,6.42667 -0.17063,7 -2.08333,7 -1.22223,0 -1.91111,0.51667 -1.66667,1.25 0.50725,1.52176 12.62381,1.75477 13,0.25 0.1375,-0.55 -0.7625,-1.1438 -2,-1.31955 -2.03673,-0.28926 -2.25,-0.86699 -2.25,-6.09501 0,-4.46894 0.44401,-6.17729 1.96275,-7.55173 2.1772,-1.97034 5.03725,-1.43951 5.03725,0.93491 0,1.97176 2.60769,1.99611 3.36163,0.0314 1.0167,-2.64949 5.32293,-1.81845 6.47718,1.25 0.56896,1.5125 2.23141,5.62572 3.69433,9.1405 2.15245,5.17141 2.45477,6.84061 1.5848,8.75 -1.23595,2.71259 -6.11794,3.39846 -6.11794,0.85948 0,-0.83333 -0.88889,-1.5 -2,-1.5 -2.53365,0 -2.71082,3.48661 -0.25,4.9199 2.64054,1.53798 5.41112,1.27926 8.86686,-0.82797 z m 3.94469,-22.79214 c -1.15566,-3.01159 -2.83242,0.19699 -2.01267,3.85137 l 0.75121,3.34884 0.94429,-2.78299 c 0.51935,-1.53064 0.66208,-3.51839 0.31717,-4.41722 z m -80.06104,17.12391 c -1.64972,-0.86019 -3.42636,-2.31992 -3.94809,-3.24384 -0.82139,-1.4546 -1.02852,-1.34463 -1.54467,0.82014 l -0.59609,2.5 -13.86736,0.23838 c -9.0362,0.15534 -14.33366,-0.14861 -15.20582,-0.87244 -2.01914,-1.67574 -1.62742,-4.97762 0.66153,-5.57619 1.79677,-0.46987 2,-1.36402 2,-8.79939 0,-6.29446 -0.34605,-8.40917 -1.44507,-8.83091 -1.09344,-0.41959 -1.51926,0.46684 -1.75,3.64302 -0.28555,3.9307 -0.51157,4.21745 -3.55557,4.51094 -2.73308,0.2635 -3.4109,-0.1081 -4.25716,-2.33392 -0.55358,-1.45603 -0.77095,-3.02847 -0.48304,-3.49431 0.2879,-0.46584 0.0661,-1.12964 -0.49285,-1.4751 -0.65603,-0.40545 -1.01631,2.20521 -1.01631,7.36448 0,7.89913 0.031,7.9963 2.64914,8.30902 3.4118,0.40752 5.25705,3.15627 3.73676,5.56642 -0.94111,1.49197 -2.70968,1.75 -11.99489,1.75 h -10.89101 v -3.5 c 0,-3.21777 0.26207,-3.52527 3.25,-3.81336 l 3.25,-0.31336 v -7.37762 c 0,-4.05769 -0.45,-7.65574 -1,-7.99566 -0.5776,-0.35698 -1,0.58962 -1,2.24098 0,1.57246 -0.54,3.39902 -1.2,4.05902 -1.83712,1.83712 -5.60769,1.42786 -6.76482,-0.73426 -1.4481,-2.70581 -1.29885,-11.61081 0.21482,-12.81662 1.8704,-1.48998 41.02181,-1.41797 41.97284,0.0772 0.41059,0.64552 0.75343,2.30192 0.76185,3.68089 0.0143,2.34382 0.29924,2.48462 4.37246,2.16066 6.20743,-0.49369 8.64285,2.70466 8.64285,11.35036 0,5.25381 0.2965,6.32604 1.86256,6.73558 1.6505,0.43161 1.80829,0.006 1.3859,-3.7418 -0.59983,-5.32171 1.96208,-11.0524 5.83673,-13.05606 6.46858,-3.34504 14.71162,-0.7247 17.06714,5.42537 l 1.00297,2.61868 1.34685,-3.18529 c 2.42273,-5.72965 11.12366,-8.11093 17.53057,-4.79778 8.7726,4.53648 7.71474,20.43113 -1.56358,23.49325 -7.84637,2.58954 -14.64931,-0.54134 -16.87039,-7.76417 -1.47036,-4.78151 -1.63596,-4.63139 -1.9349,1.75399 -0.13709,2.92843 -0.73542,3.78553 -3.66385,5.24845 -4.3278,2.16197 -8.57502,2.22152 -12.4995,0.17525 z m -41.68843,-3.6737 c 0.25783,-1.34856 -0.34588,-1.75 -2.63176,-1.75 -3.69385,0 -4.18447,-1.21705 -4.165,-10.33179 0.0176,-8.2393 0.76658,-9.97671 4.09778,-9.5057 1.8753,0.26515 2.49408,1.08767 2.88691,3.83749 0.31746,2.22222 1.04762,3.5 2,3.5 1.10447,0 1.5797,-1.38434 1.80226,-5.25 l 0.30226,-5.25 h -13.05226 -13.05226 v 4.94098 c 0,6.94855 3.30591,7.98797 3.44802,1.0841 0.0438,-2.12743 0.52442,-2.52508 3.05198,-2.52508 h 3 l 0.28621,9.75 0.28621,9.75 H 121.294 c -1.63746,0 -3.25531,0.45 -3.59523,1 -1.44731,2.3418 0.97167,3.06526 9.32108,2.78773 7.3136,-0.2431 8.70831,-0.5592 8.99099,-2.03773 z m 18.6179,1.36331 c 0.30141,-0.48768 -0.12204,-1.44278 -0.94098,-2.12245 -1.86933,-1.55141 -1.99739,-9.91332 -0.18968,-12.38552 0.86443,-1.18217 2.28694,-1.66452 4.25,-1.44113 2.90868,0.33101 2.9549,0.43189 3.24638,7.08579 0.18479,4.21847 -0.0965,6.75 -0.75,6.75 -0.57513,0 -1.04569,0.675 -1.04569,1.5 0,1.13094 1.21566,1.5 4.94098,1.5 5.13941,0 7.81682,-1.72756 4.15964,-2.68394 -1.83146,-0.47894 -2.10062,-1.29714 -2.10062,-6.38564 0,-3.20997 -0.50646,-6.94788 -1.12547,-8.30645 -1.30183,-2.85721 -5.06217,-4.1291 -7.82931,-2.64817 -3.85446,2.06284 -5.04526,1.30139 -5.04462,-3.2258 l 6e-4,-4.25 -3.70204,0.10432 c -4.06855,0.11466 -5.56945,1.83023 -2.34005,2.67474 1.88604,0.49321 2.04089,1.30667 2.04089,10.72094 0,9.34624 -0.16511,10.23042 -2,10.71025 -1.1,0.28766 -2,1.14553 -2,1.90638 0,1.57724 9.48306,2.02882 10.42997,0.49668 z m 35.61836,-0.95136 c 3.64221,-2.94928 1.51799,-4.67508 -2.61236,-2.12238 -3.83093,2.36765 -6.83644,1.94918 -8.51403,-1.18544 -2.00211,-3.74096 -0.5008,-4.85413 6.54668,-4.85413 6.34477,0 6.53138,-0.0733 6.53138,-2.56574 0,-6.32835 -6.00346,-9.71313 -12.45023,-7.0195 -6.92704,2.8943 -8.31952,13.8314 -2.29796,18.04906 3.04577,2.13334 9.99151,1.96949 12.79652,-0.30187 z m -10.6867,-11.66195 c -1.00564,-2.62064 0.44963,-4.5 3.48454,-4.5 3.2885,0 5.66571,2.22367 4.79709,4.48727 -0.78383,2.04261 -7.49873,2.05294 -8.28163,0.0127 z m 5.36754,-2.10417 c -0.3323,-0.33229 -1.1948,-0.36781 -1.91667,-0.0789 -0.79773,0.31922 -0.56078,0.55618 0.60417,0.60416 1.05416,0.0434 1.64479,-0.19293 1.3125,-0.52522 z m 29.00945,14.07469 c 1.201,-0.84122 2.59942,-3.0353 3.10759,-4.87574 2.6522,-9.60547 -4.54042,-16.83852 -13.16214,-13.23614 -4.3555,1.81984 -5.68408,4.18551 -5.68408,10.12107 0,6.28213 3.14012,9.52029 9.23204,9.52029 2.37762,0 5.30559,-0.68827 6.50659,-1.52948 z m -8.39444,-1.46684 c -4.01246,-1.61842 -4.25387,-11.91128 -0.32865,-14.012 2.66286,-1.42512 3.73099,-1.24515 5.98446,1.00832 1.33333,1.33333 2,3.33333 2,6 0,2.66667 -0.66667,4.66667 -2,6 -2.20562,2.20562 -2.53223,2.26358 -5.65581,1.00368 z m 4.68806,-5.03176 c 0.93384,-3.49191 -0.58481,-7.20336 -2.77749,-6.78797 -1.82176,0.34512 -2.9473,5.56893 -1.82824,8.48515 0.86396,2.25146 3.84336,1.15357 4.60573,-1.69718 z m -51.2326,-1.84796 c -0.21451,-3.31034 -0.72577,-4.62396 -1.79964,-4.62396 -1.01919,0 -1.60149,1.23574 -1.81663,3.85516 -0.40433,4.92278 0.31419,6.77488 2.32842,6.00194 1.1993,-0.46021 1.51422,-1.73989 1.28785,-5.23314 z m 27.64149,3.34424 c 1.81969,-1.37635 1.71021,-1.4682 -1.75,-1.4682 -3.47879,0 -4.53948,0.81831 -3.02446,2.33333 1.03354,1.03354 2.65189,0.7403 4.77446,-0.86513 z m -159.441131,6.5318 c -1.391703,-2.60042 0.328021,-6 3.035184,-6 1.787917,0 1.964816,-0.714 1.964816,-7.93045 0,-7.46282 -0.132674,-7.94929 -2.25,-8.25 -2.474534,-0.35144 -3.621918,-4.06403 -1.897971,-6.14126 0.880362,-1.06077 7.7306,-1.30042 21.474894,-0.75128 1.004808,0.0401 3.142308,1.38837 4.75,2.99607 3.19458,3.19458 3.868454,7.90794 1.78452,12.48168 -1.347717,2.95791 -6.420676,5.59524 -10.762572,5.59524 -3.959783,0 -4.025612,1.56465 -0.09887,2.35 2.510855,0.50217 3,1.07578 3,3.51801 -1e-6,3.71053 -1.177738,4.13199 -11.546605,4.13199 -7.359573,0 -8.513706,-0.24417 -9.453396,-2 z m 19,-1.93358 c 0,-1.36598 -0.807253,-2.02646 -2.75,-2.25 -2.182287,-0.2511 -2.75,-0.83252 -2.75,-2.81642 0,-2.28086 0.479865,-2.55856 5.474483,-3.16811 6.515611,-0.79518 9.025517,-3.23357 9.025517,-8.76836 0,-2.69793 -0.704539,-4.37678 -2.573608,-6.13268 -2.327821,-2.18688 -3.515741,-2.43526 -12.438539,-2.60083 -7.227371,-0.13412 -10.16349,0.17668 -10.981593,1.16244 -0.871043,1.04954 -0.499635,1.64123 1.688539,2.68999 2.765286,1.32537 2.805201,1.47217 2.805201,10.31733 0,8.18591 -0.175401,9.00447 -2,9.33359 -2.637882,0.47582 -3.885479,1.7339 -3.053851,3.0795 0.397962,0.64391 4.113213,1.08713 9.112868,1.08713 7.677661,0 8.440983,-0.17485 8.440983,-1.93358 z m -5.333333,-12.73309 c -0.366667,-0.36666 -0.666667,-2.38309 -0.666667,-4.48094 0,-3.25072 0.375335,-3.90849 2.540295,-4.45186 4.65591,-1.16856 8.572749,5.08643 5.259705,8.39947 -1.283397,1.2834 -6.028496,1.63817 -7.133333,0.53333 z m 6.333333,-4.26152 c 0,-1.70488 -1.816371,-3.07181 -4.081787,-3.07181 -1.028566,0 -1.270508,5.31437 -0.28673,6.29815 1.108678,1.10868 4.368517,-1.29886 4.368517,-3.22634 z m 13.996617,18.07865 c -5.656009,-5.65601 -4.706166,-15.40788 1.936778,-19.88456 6.610655,-4.45492 14.960122,-1.69105 17.169602,5.68354 1.053243,3.51541 0.986374,4.29432 -0.510673,5.94854 -1.127417,1.24579 -1.354584,2.13092 -0.657467,2.56176 1.764106,1.09028 1.203725,4.33324 -1.123418,6.5013 -1.688751,1.57332 -3.533311,2.03896 -8.076924,2.03896 -5.140197,0 -6.250418,-0.36206 -8.737898,-2.84954 z m 13.535502,0.40057 c 2.358998,-0.98566 3.467881,-2.10481 3.467881,-3.5 0,-2.45967 -1.245503,-2.5915 -4.477367,-0.4739 -4.280433,2.80464 -9.78768,0.16191 -8.213165,-3.94121 0.494193,-1.28784 2.044049,-1.63592 7.284147,-1.63592 h 6.656385 l -0.62393,-3.25 c -1.456557,-7.58709 -9.898388,-10.15899 -15.860293,-4.83203 -2.8594,2.55487 -3.265777,3.53729 -3.265777,7.89501 0,8.96553 6.618855,13.25333 15.032119,9.73805 z m -9.532119,-13.92859 c 0,-4.03069 7.25603,-4.84026 7.819551,-0.87244 0.286472,2.01709 -0.10171,2.25 -3.75,2.25 -2.789946,0 -4.069551,-0.43315 -4.069551,-1.37756 z m 6,-0.62244 c 0,-0.55 -0.648442,-1 -1.440983,-1 -0.792541,0 -1.719098,0.45 -2.059017,1 -0.339919,0.55 0.308524,1 1.440983,1 1.132459,0 2.059017,-0.45 2.059017,-1 z m 2.44113,8.4682 c 1.80622,-1.36616 1.649844,-1.4682 -2.25,-1.4682 -3.923723,0 -5.087398,0.7704 -3.524463,2.33333 1.092732,1.09274 3.702968,0.70167 5.774463,-0.86513 z m 12.115569,6.30929 c -1.03719,-1.4808 -1.5567,-4.4843 -1.5567,-9 0,-5.12642 -0.33935,-6.77749 -1.39301,-6.77749 -2.70063,0 -2.858434,-3.38616 -0.25606,-5.49438 1.36165,-1.10309 2.62723,-3.13062 2.8124,-4.50562 0.65229,-4.8437 7.83667,-3.41439 7.83667,1.55909 0,1.87994 0.60985,2.37299 3.25,2.62755 2.71644,0.26191 3.25,0.72379 3.25,2.81336 0,2.08957 -0.53356,2.55145 -3.25,2.81336 l -3.25,0.31336 0.11831,5.68664 c 0.0894,4.29752 0.27451,4.95679 0.75771,2.69885 0.75771,-3.54069 3.87306,-4.57584 5.80788,-1.92982 1.895352,2.59204 1.622642,5.75819 -0.75648,8.78275 -1.73222,2.20216 -2.87245,2.63486 -6.9433,2.63486 -3.89964,0 -5.18107,-0.4431 -6.42742,-2.22251 z m 12.23569,-1.54006 c 1.49285,-2.00484 1.23317,-6.41093 -0.40958,-6.94937 -0.61445,-0.2014 -1.39747,1.03525 -1.74005,2.74812 -0.4538,2.26904 -1.10053,3.02322 -2.38281,2.77872 -1.43578,-0.27377 -1.81441,-1.57696 -2.05564,-7.07524 -0.26903,-6.13208 -0.11864,-6.73966 1.66821,-6.73966 2.65351,0 5.12748,-1.01661 5.12748,-2.10699 0,-0.49115 -0.8632,-0.89301 -1.91821,-0.89301 -3.66792,0 -5.08179,-1.16201 -5.08179,-4.17654 0,-2.5003 -0.35108,-2.9127 -2.25,-2.64301 -1.59952,0.22717 -2.34015,1.10077 -2.56181,3.02178 -0.18638,1.61519 -1.0915,2.94969 -2.25,3.31739 -2.5052,0.79512 -2.476587,2.17472 0.0618,2.98038 1.76186,0.55919 2,1.51303 2,8.01068 0,6.50575 0.26544,7.56571 2.25,8.98471 2.70453,1.93379 7.65133,1.28166 9.54239,-1.25796 z m 38.207612,-39.398 c -10.725,-0.46951 -20.22975,-1.2682 -21.12167,-1.77487 -1.02068,-0.57981 -2.0006,-0.54229 -2.64416,0.10127 -0.58919,0.58919 -3.71589,0.82239 -7.37833,0.5503 -3.49571,-0.2597 -18.730842,-0.63957 -33.855841,-0.84416 -26.531073,-0.35886 -27.669685,-0.45551 -32.315984,-2.74312 -6.811056,-3.35342 -9.836377,-8.27818 -10.369488,-16.87992 -0.435423,-7.02555 0.826833,-13.27585 6.108802,-30.24893 1.454846,-4.675 2.517261,-10.075 2.360922,-12 -0.250887,-3.08917 -0.841802,-3.76637 -5.034252,-5.769288 -3.753165,-1.79305 -4.75,-2.7825 -4.75,-4.71481 0,-7.26466 15.574271,-5.23484 19.799449,2.5805 1.692202,3.130078 0.911883,11.557608 -1.796611,19.403598 -4.724181,13.68505 -6.629358,27.77115 -4.31536,31.90604 0.779131,1.39223 1.159072,0.15487 1.682821,-5.48046 1.80875,-19.46144 7.137211,-28.40125 24.740246,-41.50789 8.841893,-6.583378 10.253357,-7.878298 7.389455,-6.779318 -1.15934,0.44488 -1.5,-0.22878 -1.5,-2.96627 0,-4.86755 1.69103,-9.00463 3.410878,-8.34466 0.886331,0.34011 1.549857,-0.3417 1.84743,-1.89835 0.255391,-1.33599 0.07675,-2.42908 -0.39698,-2.42908 -0.47373,0 -0.861328,-1.44932 -0.861328,-3.22072 0,-4.321688 -2.249089,-13.779281 -3.27682,-13.779281 -0.452128,0 -0.717539,-2.290444 -0.589803,-5.089875 0.226317,-4.959904 0.101112,-5.208873 -4.903205,-9.75 -7.083559,-6.427918 -9.224063,-10.413234 -9.216665,-17.160125 0.006,-5.470881 3.391631,-14.896287 5.909826,-16.452617 0.620887,-0.38373 4.250782,0.268522 8.066431,1.449449 6.377198,1.973715 7.162599,2.02308 9.723885,0.61118 9.59622,-5.289869 10.67698,-5.35386 21.625062,-1.280416 11.47683,4.270177 16.76376,11.179101 20.76613,27.137041 l 2.1738,8.667208 -2.09215,2.829782 c -2.0744,2.805776 -2.07524,2.834202 -0.0994,3.350899 1.58414,0.414262 1.85882,1.054782 1.33955,3.123707 -0.91878,3.660715 1.05348,7.639822 5.23598,10.563767 11.95202,8.355551 27.09201,24.313111 27.28328,28.756601 0.0298,0.69114 1.17909,2.234788 2.55409,3.430338 1.375,1.19555 2.5,2.93483 2.5,3.86508 0,0.93025 2.33304,5.2366 5.18453,9.56966 6.99729,10.63295 9.00483,16.74744 9.0846,27.66954 0.0775,10.60676 1.607,11.30176 5.94319,2.70049 4.22249,-8.37573 6.09183,-17.17666 5.56851,-26.21671 -0.43345,-7.48765 -0.3685,-7.77501 1.75718,-7.77501 3.23105,0 9.82801,7.68962 12.32697,14.3687 5.45093,14.56893 -0.27306,32.92982 -12.28983,39.42221 -8.29423,4.48118 -14.75407,4.83553 -55.57515,3.04852 z m 47.24023,-2.48687 c 18.55838,-5.20722 26.42328,-29.28321 14.86931,-45.51782 -4.89033,-6.87146 -5.59438,-6.5407 -5.73354,2.6936 -0.20647,13.70156 -7.40101,31.52516 -12.69743,31.45635 -3.37917,-0.0439 -4.10717,-1.84013 -3.8243,-9.43577 0.37544,-10.08112 -1.74166,-16.99692 -8.44719,-27.59391 -2.9739,-4.69975 -5.40708,-9.24251 -5.40708,-10.09502 0,-0.85251 -0.90055,-2.36501 -2.00123,-3.3611 -1.10068,-0.9961 -3.56136,-4.60085 -5.46817,-8.010558 -3.3531,-5.99589 -12.15541,-15.17798 -20.1841,-21.05495 -8.34988,-6.112076 -10.3465,-8.569917 -10.3465,-12.736527 0,-3.321569 -0.26368,-3.806547 -1.75,-3.218756 -7.61277,3.010589 -15.56691,0.245326 -20.16928,-7.011864 -2.959442,-4.666548 -5.142542,-12.18928 -5.010432,-17.265445 0.0627,-2.408474 0.1633,-2.484319 0.92971,-0.700779 l 0.85943,2 0.16915,-2 c 0.10386,-1.227947 0.66366,-0.434903 1.450162,2.054375 3.54964,11.234552 9.31528,17.90017 15.48333,17.90017 4.25069,0 8.03793,-2.60499 8.03793,-5.528766 0,-3.838223 -3.35991,-14.726745 -6.20642,-20.113225 -3.44248,-6.51426 -7.66532,-9.843999 -16.21474,-12.785429 -7.693412,-2.646921 -10.472372,-2.556783 -14.578842,0.472875 -3.96742,2.927071 -9.820737,3.3085 -15.345756,1 -1.974503,-0.825 -4.075161,-1.5 -4.668129,-1.5 -1.566526,0 -5.968687,9.980743 -5.954383,13.5 0.02021,4.972119 3.385993,10.835436 9.08083,15.819133 5.236909,4.582951 5.383218,4.853916 5.236379,9.697775 -0.08308,2.740701 0.161086,4.983092 0.542596,4.983092 0.954692,0 3.108464,8.353962 3.108464,12.056983 v 3.028278 l 3.499969,-2.792629 c 1.92498,-1.535948 3.49998,-3.624624 3.5,-4.641503 2e-5,-1.016879 0.7263,-3.379379 1.61397,-5.25 1.27823,-2.693668 2.20606,-3.401129 4.46057,-3.401129 3.08794,0 4.02007,0.77284 7.00566,5.808488 1.078862,1.819669 3.402742,4.069669 5.164182,5 5.4577,2.882583 9.38641,7.378793 10.18608,11.657483 0.40768,2.18128 1.6026,4.56929 2.6554,5.3067 1.05279,0.73741 1.91417,2.44022 1.91417,3.78403 0,3.46902 -6.95925,10.157418 -11.44422,10.998798 l -3.55578,0.66707 v 8.49437 c 0,4.6719 -0.70449,11.21306 -1.56552,14.53591 -1.31562,5.07712 -1.37611,7.17538 -0.37895,13.14434 1.74338,10.43575 3.54455,14.20476 8.30678,17.38221 2.62238,1.7497 4.48044,3.9164 5.07359,5.91638 0.92909,3.13272 0.99448,3.1598 9,3.72756 40.71722,2.88773 51.23205,3.05388 58.80433,0.92921 z m -71.42068,-2.56975 c -0.18307,-1.27023 -2.08294,-3.39917 -4.44835,-4.98469 -5.11165,-3.42631 -7.1732,-7.64967 -9.053952,-18.54819 -1.3259,-7.6833 -1.30572,-9.20414 0.21265,-16.02894 1.11595,-5.01597 1.559132,-10.583 1.323822,-16.6293 l -0.353722,-9.089078 4.000002,-0.55608 c 4.6493,-0.64634 7.27128,-1.93133 9.92566,-4.86438 1.87473,-2.07155 1.87104,-2.13741 -0.2458,-4.39069 -1.182,-1.25818 -2.44144,-3.84097 -2.79875,-5.73953 -0.69727,-3.70495 -3.91278,-7.95192 -6.02063,-7.95192 -2.068,0 -8.000442,-5.716582 -9.374192,-9.033088 -1.63345,-3.943508 -3.23622,-3.328496 -4.48629,1.721475 -0.69939,2.825346 -2.43842,5.358203 -5.78498,8.425673 -4.356417,3.99312 -4.881095,4.96811 -5.858105,10.88594 -0.590218,3.575 -1.693736,7.4879 -2.452263,8.69534 -0.758527,1.20744 -4.87238,4.873558 -9.141896,8.146938 -16.700802,12.80425 -21.402154,21.15642 -23.122132,41.07752 -0.719734,8.33608 -2.165326,9.86689 -4.696102,4.97291 -2.632529,-5.09075 -1.53637,-17.96533 2.587678,-30.39272 4.335693,-13.06516 4.587683,-20.329128 0.835503,-24.084558 -3.263457,-3.26628 -10.33231,-4.35549 -13.367702,-2.05978 -1.921853,1.45353 -1.814921,1.59495 2.736715,3.6194 8.221429,3.656688 8.590535,7.184928 2.691369,25.726538 -6.714585,21.10455 -6.272998,31.88259 1.550753,37.85006 4.603468,3.51123 11.742164,4.43577 34.302548,4.44255 15.749424,0.005 19.381334,-0.25467 19.827004,-1.41607 0.90427,-2.3565 -1.52893,-5.61225 -4.66277,-6.23902 -1.62009,-0.32401 -2.94562,-1.12522 -2.94562,-1.78046 0,-1.23044 1.68297,-11.36315 2.53679,-15.27336 0.76501,-3.50346 3.27256,-1.65762 4.84801,3.56867 2.55519,8.47642 6.65989,18.53793 8.30383,20.35446 1.210332,1.3374 3.120702,1.79157 7.535912,1.79157 5.5371,0 5.89417,-0.1415 5.59501,-2.21719 z m -17.687212,-2.78281 c 1.4854,0 0.0459,-1.84038 -2.43803,-3.11703 -1.80908,-0.92979 -1.97486,-0.89562 -0.94431,0.19462 0.6875,0.72733 1.3022,2.46991 1.366,3.87241 0.0771,1.69485 0.26937,1.96313 0.57333,0.8 0.25152,-0.9625 0.90088,-1.75 1.44301,-1.75 z m 18.867662,-0.37756 c 0,-0.20765 -0.7875,-0.99515 -1.75,-1.75 -1.58606,-1.24387 -1.62143,-1.2085 -0.37756,0.37756 1.30637,1.66575 2.12756,2.19548 2.12756,1.37244 z m -24.316892,-8.80994 c -0.31922,-0.79773 -0.55618,-0.56078 -0.60416,0.60417 -0.0434,1.05416 0.19292,1.64479 0.52522,1.3125 0.33229,-0.3323 0.36781,-1.1948 0.0789,-1.91667 z m -0.46162,-9.07353 c -0.5369,-2.05311 -0.58564,-2.05996 -1.31921,-0.18542 -1.1365,2.90418 -1.04517,3.43851 0.48721,2.85048 0.85881,-0.32955 1.17657,-1.34742 0.832,-2.66506 z m 12.461622,0.0735 c -0.31922,-0.79773 -0.55618,-0.56078 -0.60416,0.60417 -0.0434,1.05416 0.19292,1.64479 0.52522,1.3125 0.33229,-0.3323 0.36781,-1.1948 0.0789,-1.91667 z m -1.000002,-6 c -0.31922,-0.79773 -0.55618,-0.56078 -0.60416,0.60417 -0.0434,1.05416 0.19292,1.64479 0.52522,1.3125 0.332292,-0.3323 0.367812,-1.1948 0.0789,-1.91667 z m 2.000002,-33 c -0.31922,-0.79773 -0.55618,-0.56078 -0.60416,0.60417 -0.0434,1.05416 0.19292,1.64479 0.52522,1.3125 0.33229,-0.3323 0.36781,-1.1948 0.0789,-1.91667 z m 12.44445,-8.562498 c 1.24387,-1.58606 1.2085,-1.62143 -0.37756,-0.37756 -1.66575,1.30637 -2.19548,2.12756 -1.37244,2.12756 0.20765,0 0.99515,-0.7875 1.75,-1.75 z m -4.12756,-18.62752 c 0,-0.20765 -0.7875,-0.99515 -1.75,-1.75 -1.58606,-1.24387 -1.62143,-1.2085 -0.37756,0.37756 1.30637,1.66575 2.12756,2.19548 2.12756,1.37244 z m 7.5,-19.296479 c -5.72129,-0.713968 -7.36249,-1.339078 -10.67293,-4.065159 -1.82989,-1.506879 -2.65207,-1.884083 -1.82707,-0.838232 2.66418,3.377376 7.32646,5.576291 11.5,5.423859 3.23879,-0.118292 3.42909,-0.217339 1,-0.520468 z"
     style="fill:#000000" />
</svg>
